%TF.GenerationSoftware,KiCad,Pcbnew,(6.0.10-0)*%
%TF.CreationDate,2023-02-14T13:22:43-08:00*%
%TF.ProjectId,lab4 exercise2,6c616234-2065-4786-9572-63697365322e,rev?*%
%TF.SameCoordinates,Original*%
%TF.FileFunction,AssemblyDrawing,Top*%
%FSLAX46Y46*%
G04 Gerber Fmt 4.6, Leading zero omitted, Abs format (unit mm)*
G04 Created by KiCad (PCBNEW (6.0.10-0)) date 2023-02-14 13:22:43*
%MOMM*%
%LPD*%
G01*
G04 APERTURE LIST*
%ADD10C,0.150000*%
%ADD11C,0.080000*%
%ADD12C,0.120000*%
%ADD13C,0.100000*%
G04 APERTURE END LIST*
D10*
%TO.C,U1*%
X126342380Y-103516666D02*
X125342380Y-103516666D01*
X126342380Y-102945238D01*
X125342380Y-102945238D01*
X125818571Y-102469047D02*
X125818571Y-102135714D01*
X126342380Y-101992857D02*
X126342380Y-102469047D01*
X125342380Y-102469047D01*
X125342380Y-101992857D01*
X125342380Y-101088095D02*
X125342380Y-101564285D01*
X125818571Y-101611904D01*
X125770952Y-101564285D01*
X125723333Y-101469047D01*
X125723333Y-101230952D01*
X125770952Y-101135714D01*
X125818571Y-101088095D01*
X125913809Y-101040476D01*
X126151904Y-101040476D01*
X126247142Y-101088095D01*
X126294761Y-101135714D01*
X126342380Y-101230952D01*
X126342380Y-101469047D01*
X126294761Y-101564285D01*
X126247142Y-101611904D01*
X125342380Y-100135714D02*
X125342380Y-100611904D01*
X125818571Y-100659523D01*
X125770952Y-100611904D01*
X125723333Y-100516666D01*
X125723333Y-100278571D01*
X125770952Y-100183333D01*
X125818571Y-100135714D01*
X125913809Y-100088095D01*
X126151904Y-100088095D01*
X126247142Y-100135714D01*
X126294761Y-100183333D01*
X126342380Y-100278571D01*
X126342380Y-100516666D01*
X126294761Y-100611904D01*
X126247142Y-100659523D01*
X125342380Y-99183333D02*
X125342380Y-99659523D01*
X125818571Y-99707142D01*
X125770952Y-99659523D01*
X125723333Y-99564285D01*
X125723333Y-99326190D01*
X125770952Y-99230952D01*
X125818571Y-99183333D01*
X125913809Y-99135714D01*
X126151904Y-99135714D01*
X126247142Y-99183333D01*
X126294761Y-99230952D01*
X126342380Y-99326190D01*
X126342380Y-99564285D01*
X126294761Y-99659523D01*
X126247142Y-99707142D01*
X126342380Y-98707142D02*
X125342380Y-98707142D01*
X125342380Y-98469047D01*
X125390000Y-98326190D01*
X125485238Y-98230952D01*
X125580476Y-98183333D01*
X125770952Y-98135714D01*
X125913809Y-98135714D01*
X126104285Y-98183333D01*
X126199523Y-98230952D01*
X126294761Y-98326190D01*
X126342380Y-98469047D01*
X126342380Y-98707142D01*
X121953333Y-101596666D02*
X122746666Y-101596666D01*
X122840000Y-101550000D01*
X122886666Y-101503333D01*
X122933333Y-101410000D01*
X122933333Y-101223333D01*
X122886666Y-101130000D01*
X122840000Y-101083333D01*
X122746666Y-101036666D01*
X121953333Y-101036666D01*
X122933333Y-100056666D02*
X122933333Y-100616666D01*
X122933333Y-100336666D02*
X121953333Y-100336666D01*
X122093333Y-100430000D01*
X122186666Y-100523333D01*
X122233333Y-100616666D01*
%TO.C,J1*%
X116166666Y-74017142D02*
X116119047Y-74064761D01*
X115976190Y-74112380D01*
X115880952Y-74112380D01*
X115738095Y-74064761D01*
X115642857Y-73969523D01*
X115595238Y-73874285D01*
X115547619Y-73683809D01*
X115547619Y-73540952D01*
X115595238Y-73350476D01*
X115642857Y-73255238D01*
X115738095Y-73160000D01*
X115880952Y-73112380D01*
X115976190Y-73112380D01*
X116119047Y-73160000D01*
X116166666Y-73207619D01*
X116738095Y-74112380D02*
X116642857Y-74064761D01*
X116595238Y-74017142D01*
X116547619Y-73921904D01*
X116547619Y-73636190D01*
X116595238Y-73540952D01*
X116642857Y-73493333D01*
X116738095Y-73445714D01*
X116880952Y-73445714D01*
X116976190Y-73493333D01*
X117023809Y-73540952D01*
X117071428Y-73636190D01*
X117071428Y-73921904D01*
X117023809Y-74017142D01*
X116976190Y-74064761D01*
X116880952Y-74112380D01*
X116738095Y-74112380D01*
X117500000Y-73445714D02*
X117500000Y-74112380D01*
X117500000Y-73540952D02*
X117547619Y-73493333D01*
X117642857Y-73445714D01*
X117785714Y-73445714D01*
X117880952Y-73493333D01*
X117928571Y-73588571D01*
X117928571Y-74112380D01*
X118404761Y-73445714D02*
X118404761Y-74112380D01*
X118404761Y-73540952D02*
X118452380Y-73493333D01*
X118547619Y-73445714D01*
X118690476Y-73445714D01*
X118785714Y-73493333D01*
X118833333Y-73588571D01*
X118833333Y-74112380D01*
X119071428Y-74207619D02*
X119833333Y-74207619D01*
X120261904Y-73112380D02*
X120357142Y-73112380D01*
X120452380Y-73160000D01*
X120500000Y-73207619D01*
X120547619Y-73302857D01*
X120595238Y-73493333D01*
X120595238Y-73731428D01*
X120547619Y-73921904D01*
X120500000Y-74017142D01*
X120452380Y-74064761D01*
X120357142Y-74112380D01*
X120261904Y-74112380D01*
X120166666Y-74064761D01*
X120119047Y-74017142D01*
X120071428Y-73921904D01*
X120023809Y-73731428D01*
X120023809Y-73493333D01*
X120071428Y-73302857D01*
X120119047Y-73207619D01*
X120166666Y-73160000D01*
X120261904Y-73112380D01*
X121547619Y-74112380D02*
X120976190Y-74112380D01*
X121261904Y-74112380D02*
X121261904Y-73112380D01*
X121166666Y-73255238D01*
X121071428Y-73350476D01*
X120976190Y-73398095D01*
X121880952Y-74112380D02*
X122404761Y-73445714D01*
X121880952Y-73445714D02*
X122404761Y-74112380D01*
X122976190Y-73112380D02*
X123071428Y-73112380D01*
X123166666Y-73160000D01*
X123214285Y-73207619D01*
X123261904Y-73302857D01*
X123309523Y-73493333D01*
X123309523Y-73731428D01*
X123261904Y-73921904D01*
X123214285Y-74017142D01*
X123166666Y-74064761D01*
X123071428Y-74112380D01*
X122976190Y-74112380D01*
X122880952Y-74064761D01*
X122833333Y-74017142D01*
X122785714Y-73921904D01*
X122738095Y-73731428D01*
X122738095Y-73493333D01*
X122785714Y-73302857D01*
X122833333Y-73207619D01*
X122880952Y-73160000D01*
X122976190Y-73112380D01*
X123690476Y-73207619D02*
X123738095Y-73160000D01*
X123833333Y-73112380D01*
X124071428Y-73112380D01*
X124166666Y-73160000D01*
X124214285Y-73207619D01*
X124261904Y-73302857D01*
X124261904Y-73398095D01*
X124214285Y-73540952D01*
X123642857Y-74112380D01*
X124261904Y-74112380D01*
X124452380Y-74207619D02*
X125214285Y-74207619D01*
X125452380Y-74112380D02*
X125452380Y-73112380D01*
X125785714Y-73826666D01*
X126119047Y-73112380D01*
X126119047Y-74112380D01*
X127023809Y-74112380D02*
X127023809Y-73588571D01*
X126976190Y-73493333D01*
X126880952Y-73445714D01*
X126690476Y-73445714D01*
X126595238Y-73493333D01*
X127023809Y-74064761D02*
X126928571Y-74112380D01*
X126690476Y-74112380D01*
X126595238Y-74064761D01*
X126547619Y-73969523D01*
X126547619Y-73874285D01*
X126595238Y-73779047D01*
X126690476Y-73731428D01*
X126928571Y-73731428D01*
X127023809Y-73683809D01*
X127642857Y-74112380D02*
X127547619Y-74064761D01*
X127500000Y-73969523D01*
X127500000Y-73112380D01*
X128404761Y-74064761D02*
X128309523Y-74112380D01*
X128119047Y-74112380D01*
X128023809Y-74064761D01*
X127976190Y-73969523D01*
X127976190Y-73588571D01*
X128023809Y-73493333D01*
X128119047Y-73445714D01*
X128309523Y-73445714D01*
X128404761Y-73493333D01*
X128452380Y-73588571D01*
X128452380Y-73683809D01*
X127976190Y-73779047D01*
X121666666Y-68032380D02*
X121666666Y-68746666D01*
X121619047Y-68889523D01*
X121523809Y-68984761D01*
X121380952Y-69032380D01*
X121285714Y-69032380D01*
X122666666Y-69032380D02*
X122095238Y-69032380D01*
X122380952Y-69032380D02*
X122380952Y-68032380D01*
X122285714Y-68175238D01*
X122190476Y-68270476D01*
X122095238Y-68318095D01*
%TO.C,R2*%
X164662380Y-87955238D02*
X164662380Y-88526666D01*
X164662380Y-88240952D02*
X163662380Y-88240952D01*
X163805238Y-88336190D01*
X163900476Y-88431428D01*
X163948095Y-88526666D01*
X163662380Y-87336190D02*
X163662380Y-87240952D01*
X163710000Y-87145714D01*
X163757619Y-87098095D01*
X163852857Y-87050476D01*
X164043333Y-87002857D01*
X164281428Y-87002857D01*
X164471904Y-87050476D01*
X164567142Y-87098095D01*
X164614761Y-87145714D01*
X164662380Y-87240952D01*
X164662380Y-87336190D01*
X164614761Y-87431428D01*
X164567142Y-87479047D01*
X164471904Y-87526666D01*
X164281428Y-87574285D01*
X164043333Y-87574285D01*
X163852857Y-87526666D01*
X163757619Y-87479047D01*
X163710000Y-87431428D01*
X163662380Y-87336190D01*
X164662380Y-86574285D02*
X163662380Y-86574285D01*
X164281428Y-86479047D02*
X164662380Y-86193333D01*
X163995714Y-86193333D02*
X164376666Y-86574285D01*
D11*
X162786190Y-87443333D02*
X162548095Y-87610000D01*
X162786190Y-87729047D02*
X162286190Y-87729047D01*
X162286190Y-87538571D01*
X162310000Y-87490952D01*
X162333809Y-87467142D01*
X162381428Y-87443333D01*
X162452857Y-87443333D01*
X162500476Y-87467142D01*
X162524285Y-87490952D01*
X162548095Y-87538571D01*
X162548095Y-87729047D01*
X162333809Y-87252857D02*
X162310000Y-87229047D01*
X162286190Y-87181428D01*
X162286190Y-87062380D01*
X162310000Y-87014761D01*
X162333809Y-86990952D01*
X162381428Y-86967142D01*
X162429047Y-86967142D01*
X162500476Y-86990952D01*
X162786190Y-87276666D01*
X162786190Y-86967142D01*
D10*
%TO.C,R4*%
X88462380Y-104259047D02*
X88462380Y-104830476D01*
X88462380Y-104544761D02*
X87462380Y-104544761D01*
X87605238Y-104640000D01*
X87700476Y-104735238D01*
X87748095Y-104830476D01*
X88462380Y-103830476D02*
X87462380Y-103830476D01*
X88081428Y-103735238D02*
X88462380Y-103449523D01*
X87795714Y-103449523D02*
X88176666Y-103830476D01*
D11*
X86586190Y-104223333D02*
X86348095Y-104390000D01*
X86586190Y-104509047D02*
X86086190Y-104509047D01*
X86086190Y-104318571D01*
X86110000Y-104270952D01*
X86133809Y-104247142D01*
X86181428Y-104223333D01*
X86252857Y-104223333D01*
X86300476Y-104247142D01*
X86324285Y-104270952D01*
X86348095Y-104318571D01*
X86348095Y-104509047D01*
X86252857Y-103794761D02*
X86586190Y-103794761D01*
X86062380Y-103913809D02*
X86419523Y-104032857D01*
X86419523Y-103723333D01*
D10*
%TO.C,D2*%
X88632380Y-122192857D02*
X88632380Y-122669047D01*
X87632380Y-122669047D01*
X88108571Y-121859523D02*
X88108571Y-121526190D01*
X88632380Y-121383333D02*
X88632380Y-121859523D01*
X87632380Y-121859523D01*
X87632380Y-121383333D01*
X88632380Y-120954761D02*
X87632380Y-120954761D01*
X87632380Y-120716666D01*
X87680000Y-120573809D01*
X87775238Y-120478571D01*
X87870476Y-120430952D01*
X88060952Y-120383333D01*
X88203809Y-120383333D01*
X88394285Y-120430952D01*
X88489523Y-120478571D01*
X88584761Y-120573809D01*
X88632380Y-120716666D01*
X88632380Y-120954761D01*
D12*
X86721904Y-122140476D02*
X85921904Y-122140476D01*
X85921904Y-121950000D01*
X85960000Y-121835714D01*
X86036190Y-121759523D01*
X86112380Y-121721428D01*
X86264761Y-121683333D01*
X86379047Y-121683333D01*
X86531428Y-121721428D01*
X86607619Y-121759523D01*
X86683809Y-121835714D01*
X86721904Y-121950000D01*
X86721904Y-122140476D01*
X85998095Y-121378571D02*
X85960000Y-121340476D01*
X85921904Y-121264285D01*
X85921904Y-121073809D01*
X85960000Y-120997619D01*
X85998095Y-120959523D01*
X86074285Y-120921428D01*
X86150476Y-120921428D01*
X86264761Y-120959523D01*
X86721904Y-121416666D01*
X86721904Y-120921428D01*
D10*
%TO.C,R1*%
X164662380Y-68699047D02*
X164662380Y-69270476D01*
X164662380Y-68984761D02*
X163662380Y-68984761D01*
X163805238Y-69080000D01*
X163900476Y-69175238D01*
X163948095Y-69270476D01*
X164662380Y-68270476D02*
X163662380Y-68270476D01*
X164281428Y-68175238D02*
X164662380Y-67889523D01*
X163995714Y-67889523D02*
X164376666Y-68270476D01*
D11*
X162786190Y-68663333D02*
X162548095Y-68830000D01*
X162786190Y-68949047D02*
X162286190Y-68949047D01*
X162286190Y-68758571D01*
X162310000Y-68710952D01*
X162333809Y-68687142D01*
X162381428Y-68663333D01*
X162452857Y-68663333D01*
X162500476Y-68687142D01*
X162524285Y-68710952D01*
X162548095Y-68758571D01*
X162548095Y-68949047D01*
X162786190Y-68187142D02*
X162786190Y-68472857D01*
X162786190Y-68330000D02*
X162286190Y-68330000D01*
X162357619Y-68377619D01*
X162405238Y-68425238D01*
X162429047Y-68472857D01*
D10*
%TO.C,R3*%
X88462380Y-89019047D02*
X88462380Y-89590476D01*
X88462380Y-89304761D02*
X87462380Y-89304761D01*
X87605238Y-89400000D01*
X87700476Y-89495238D01*
X87748095Y-89590476D01*
X88462380Y-88590476D02*
X87462380Y-88590476D01*
X88081428Y-88495238D02*
X88462380Y-88209523D01*
X87795714Y-88209523D02*
X88176666Y-88590476D01*
D11*
X86586190Y-88983333D02*
X86348095Y-89150000D01*
X86586190Y-89269047D02*
X86086190Y-89269047D01*
X86086190Y-89078571D01*
X86110000Y-89030952D01*
X86133809Y-89007142D01*
X86181428Y-88983333D01*
X86252857Y-88983333D01*
X86300476Y-89007142D01*
X86324285Y-89030952D01*
X86348095Y-89078571D01*
X86348095Y-89269047D01*
X86086190Y-88816666D02*
X86086190Y-88507142D01*
X86276666Y-88673809D01*
X86276666Y-88602380D01*
X86300476Y-88554761D01*
X86324285Y-88530952D01*
X86371904Y-88507142D01*
X86490952Y-88507142D01*
X86538571Y-88530952D01*
X86562380Y-88554761D01*
X86586190Y-88602380D01*
X86586190Y-88745238D01*
X86562380Y-88792857D01*
X86538571Y-88816666D01*
D10*
%TO.C,C2*%
X103705767Y-123787380D02*
X103801005Y-123787380D01*
X103896244Y-123835000D01*
X103943863Y-123882619D01*
X103991482Y-123977857D01*
X104039101Y-124168333D01*
X104039101Y-124406428D01*
X103991482Y-124596904D01*
X103943863Y-124692142D01*
X103896244Y-124739761D01*
X103801005Y-124787380D01*
X103705767Y-124787380D01*
X103610529Y-124739761D01*
X103562910Y-124692142D01*
X103515291Y-124596904D01*
X103467672Y-124406428D01*
X103467672Y-124168333D01*
X103515291Y-123977857D01*
X103562910Y-123882619D01*
X103610529Y-123835000D01*
X103705767Y-123787380D01*
X104467672Y-124692142D02*
X104515291Y-124739761D01*
X104467672Y-124787380D01*
X104420053Y-124739761D01*
X104467672Y-124692142D01*
X104467672Y-124787380D01*
X105134339Y-123787380D02*
X105229577Y-123787380D01*
X105324815Y-123835000D01*
X105372434Y-123882619D01*
X105420053Y-123977857D01*
X105467672Y-124168333D01*
X105467672Y-124406428D01*
X105420053Y-124596904D01*
X105372434Y-124692142D01*
X105324815Y-124739761D01*
X105229577Y-124787380D01*
X105134339Y-124787380D01*
X105039101Y-124739761D01*
X104991482Y-124692142D01*
X104943863Y-124596904D01*
X104896244Y-124406428D01*
X104896244Y-124168333D01*
X104943863Y-123977857D01*
X104991482Y-123882619D01*
X105039101Y-123835000D01*
X105134339Y-123787380D01*
X106420053Y-124787380D02*
X105848624Y-124787380D01*
X106134339Y-124787380D02*
X106134339Y-123787380D01*
X106039101Y-123930238D01*
X105943863Y-124025476D01*
X105848624Y-124073095D01*
X106848624Y-124120714D02*
X106848624Y-125120714D01*
X107324815Y-124644523D02*
X107372434Y-124739761D01*
X107467672Y-124787380D01*
X106848624Y-124644523D02*
X106896244Y-124739761D01*
X106991482Y-124787380D01*
X107181958Y-124787380D01*
X107277196Y-124739761D01*
X107324815Y-124644523D01*
X107324815Y-124120714D01*
X108229577Y-124263571D02*
X107896244Y-124263571D01*
X107896244Y-124787380D02*
X107896244Y-123787380D01*
X108372434Y-123787380D01*
D11*
X105812910Y-122833571D02*
X105789101Y-122857380D01*
X105717672Y-122881190D01*
X105670053Y-122881190D01*
X105598624Y-122857380D01*
X105551005Y-122809761D01*
X105527196Y-122762142D01*
X105503386Y-122666904D01*
X105503386Y-122595476D01*
X105527196Y-122500238D01*
X105551005Y-122452619D01*
X105598624Y-122405000D01*
X105670053Y-122381190D01*
X105717672Y-122381190D01*
X105789101Y-122405000D01*
X105812910Y-122428809D01*
X106003386Y-122428809D02*
X106027196Y-122405000D01*
X106074815Y-122381190D01*
X106193863Y-122381190D01*
X106241482Y-122405000D01*
X106265291Y-122428809D01*
X106289101Y-122476428D01*
X106289101Y-122524047D01*
X106265291Y-122595476D01*
X105979577Y-122881190D01*
X106289101Y-122881190D01*
D10*
%TO.C,D1*%
X88827380Y-70647857D02*
X88827380Y-71124047D01*
X87827380Y-71124047D01*
X88303571Y-70314523D02*
X88303571Y-69981190D01*
X88827380Y-69838333D02*
X88827380Y-70314523D01*
X87827380Y-70314523D01*
X87827380Y-69838333D01*
X88827380Y-69409761D02*
X87827380Y-69409761D01*
X87827380Y-69171666D01*
X87875000Y-69028809D01*
X87970238Y-68933571D01*
X88065476Y-68885952D01*
X88255952Y-68838333D01*
X88398809Y-68838333D01*
X88589285Y-68885952D01*
X88684523Y-68933571D01*
X88779761Y-69028809D01*
X88827380Y-69171666D01*
X88827380Y-69409761D01*
D12*
X86916904Y-70595476D02*
X86116904Y-70595476D01*
X86116904Y-70405000D01*
X86155000Y-70290714D01*
X86231190Y-70214523D01*
X86307380Y-70176428D01*
X86459761Y-70138333D01*
X86574047Y-70138333D01*
X86726428Y-70176428D01*
X86802619Y-70214523D01*
X86878809Y-70290714D01*
X86916904Y-70405000D01*
X86916904Y-70595476D01*
X86916904Y-69376428D02*
X86916904Y-69833571D01*
X86916904Y-69605000D02*
X86116904Y-69605000D01*
X86231190Y-69681190D01*
X86307380Y-69757380D01*
X86345476Y-69833571D01*
D10*
%TO.C,C1*%
X160036190Y-118622380D02*
X159464761Y-118622380D01*
X159750476Y-118622380D02*
X159750476Y-117622380D01*
X159655238Y-117765238D01*
X159560000Y-117860476D01*
X159464761Y-117908095D01*
X160655238Y-117622380D02*
X160750476Y-117622380D01*
X160845714Y-117670000D01*
X160893333Y-117717619D01*
X160940952Y-117812857D01*
X160988571Y-118003333D01*
X160988571Y-118241428D01*
X160940952Y-118431904D01*
X160893333Y-118527142D01*
X160845714Y-118574761D01*
X160750476Y-118622380D01*
X160655238Y-118622380D01*
X160560000Y-118574761D01*
X160512380Y-118527142D01*
X160464761Y-118431904D01*
X160417142Y-118241428D01*
X160417142Y-118003333D01*
X160464761Y-117812857D01*
X160512380Y-117717619D01*
X160560000Y-117670000D01*
X160655238Y-117622380D01*
X162179047Y-117955714D02*
X162179047Y-118955714D01*
X162655238Y-118479523D02*
X162702857Y-118574761D01*
X162798095Y-118622380D01*
X162179047Y-118479523D02*
X162226666Y-118574761D01*
X162321904Y-118622380D01*
X162512380Y-118622380D01*
X162607619Y-118574761D01*
X162655238Y-118479523D01*
X162655238Y-117955714D01*
X163560000Y-118098571D02*
X163226666Y-118098571D01*
X163226666Y-118622380D02*
X163226666Y-117622380D01*
X163702857Y-117622380D01*
X161393333Y-122277142D02*
X161345714Y-122324761D01*
X161202857Y-122372380D01*
X161107619Y-122372380D01*
X160964761Y-122324761D01*
X160869523Y-122229523D01*
X160821904Y-122134285D01*
X160774285Y-121943809D01*
X160774285Y-121800952D01*
X160821904Y-121610476D01*
X160869523Y-121515238D01*
X160964761Y-121420000D01*
X161107619Y-121372380D01*
X161202857Y-121372380D01*
X161345714Y-121420000D01*
X161393333Y-121467619D01*
X162345714Y-122372380D02*
X161774285Y-122372380D01*
X162060000Y-122372380D02*
X162060000Y-121372380D01*
X161964761Y-121515238D01*
X161869523Y-121610476D01*
X161774285Y-121658095D01*
D13*
%TO.C,U1*%
X124940000Y-98900000D02*
X124940000Y-102800000D01*
X121015000Y-102800000D02*
X120040000Y-101825000D01*
X124940000Y-102800000D02*
X121015000Y-102800000D01*
X120040000Y-101825000D02*
X120040000Y-98900000D01*
X120040000Y-98900000D02*
X124940000Y-98900000D01*
%TO.C,J1*%
X127000000Y-64830000D02*
X117000000Y-64830000D01*
X117050000Y-71130000D02*
X126950000Y-71130000D01*
X117000000Y-72330000D02*
X127000000Y-72330000D01*
X117000000Y-64830000D02*
X117000000Y-72330000D01*
X127000000Y-72330000D02*
X127000000Y-64830000D01*
%TO.C,R2*%
X161935000Y-86360000D02*
X163185000Y-86360000D01*
X163185000Y-86360000D02*
X163185000Y-88360000D01*
X161935000Y-88360000D02*
X161935000Y-86360000D01*
X163185000Y-88360000D02*
X161935000Y-88360000D01*
%TO.C,R4*%
X85735000Y-105140000D02*
X85735000Y-103140000D01*
X86985000Y-103140000D02*
X86985000Y-105140000D01*
X85735000Y-103140000D02*
X86985000Y-103140000D01*
X86985000Y-105140000D02*
X85735000Y-105140000D01*
%TO.C,D2*%
X85560000Y-119950000D02*
X85560000Y-122750000D01*
X87160000Y-119950000D02*
X85560000Y-119950000D01*
X85960000Y-123150000D02*
X87160000Y-123150000D01*
X87160000Y-123150000D02*
X87160000Y-119950000D01*
X85560000Y-122750000D02*
X85960000Y-123150000D01*
%TO.C,R1*%
X163185000Y-69580000D02*
X161935000Y-69580000D01*
X163185000Y-67580000D02*
X163185000Y-69580000D01*
X161935000Y-69580000D02*
X161935000Y-67580000D01*
X161935000Y-67580000D02*
X163185000Y-67580000D01*
%TO.C,R3*%
X86985000Y-87900000D02*
X86985000Y-89900000D01*
X86985000Y-89900000D02*
X85735000Y-89900000D01*
X85735000Y-89900000D02*
X85735000Y-87900000D01*
X85735000Y-87900000D02*
X86985000Y-87900000D01*
%TO.C,C2*%
X104896244Y-123280000D02*
X104896244Y-122030000D01*
X104896244Y-122030000D02*
X106896244Y-122030000D01*
X106896244Y-122030000D02*
X106896244Y-123280000D01*
X106896244Y-123280000D02*
X104896244Y-123280000D01*
%TO.C,D1*%
X87355000Y-71605000D02*
X87355000Y-68405000D01*
X85755000Y-68405000D02*
X85755000Y-71205000D01*
X86155000Y-71605000D02*
X87355000Y-71605000D01*
X85755000Y-71205000D02*
X86155000Y-71605000D01*
X87355000Y-68405000D02*
X85755000Y-68405000D01*
%TO.C,C1*%
X164060000Y-121920000D02*
G75*
G03*
X164060000Y-121920000I-2500000J0D01*
G01*
%TD*%
M02*
