%TF.GenerationSoftware,KiCad,Pcbnew,(6.0.10-0)*%
%TF.CreationDate,2023-02-14T13:08:52-08:00*%
%TF.ProjectId,lab4 exercise2,6c616234-2065-4786-9572-63697365322e,rev?*%
%TF.SameCoordinates,Original*%
%TF.FileFunction,Legend,Top*%
%TF.FilePolarity,Positive*%
%FSLAX46Y46*%
G04 Gerber Fmt 4.6, Leading zero omitted, Abs format (unit mm)*
G04 Created by KiCad (PCBNEW (6.0.10-0)) date 2023-02-14 13:08:52*
%MOMM*%
%LPD*%
G01*
G04 APERTURE LIST*
%ADD10C,0.150000*%
%ADD11C,0.120000*%
G04 APERTURE END LIST*
D10*
%TO.C,U1*%
X118542380Y-101611904D02*
X119351904Y-101611904D01*
X119447142Y-101564285D01*
X119494761Y-101516666D01*
X119542380Y-101421428D01*
X119542380Y-101230952D01*
X119494761Y-101135714D01*
X119447142Y-101088095D01*
X119351904Y-101040476D01*
X118542380Y-101040476D01*
X119542380Y-100040476D02*
X119542380Y-100611904D01*
X119542380Y-100326190D02*
X118542380Y-100326190D01*
X118685238Y-100421428D01*
X118780476Y-100516666D01*
X118828095Y-100611904D01*
%TO.C,J1*%
X121666666Y-62952380D02*
X121666666Y-63666666D01*
X121619047Y-63809523D01*
X121523809Y-63904761D01*
X121380952Y-63952380D01*
X121285714Y-63952380D01*
X122666666Y-63952380D02*
X122095238Y-63952380D01*
X122380952Y-63952380D02*
X122380952Y-62952380D01*
X122285714Y-63095238D01*
X122190476Y-63190476D01*
X122095238Y-63238095D01*
%TO.C,R2*%
X161362380Y-87526666D02*
X160886190Y-87860000D01*
X161362380Y-88098095D02*
X160362380Y-88098095D01*
X160362380Y-87717142D01*
X160410000Y-87621904D01*
X160457619Y-87574285D01*
X160552857Y-87526666D01*
X160695714Y-87526666D01*
X160790952Y-87574285D01*
X160838571Y-87621904D01*
X160886190Y-87717142D01*
X160886190Y-88098095D01*
X160457619Y-87145714D02*
X160410000Y-87098095D01*
X160362380Y-87002857D01*
X160362380Y-86764761D01*
X160410000Y-86669523D01*
X160457619Y-86621904D01*
X160552857Y-86574285D01*
X160648095Y-86574285D01*
X160790952Y-86621904D01*
X161362380Y-87193333D01*
X161362380Y-86574285D01*
%TO.C,R4*%
X85162380Y-104306666D02*
X84686190Y-104640000D01*
X85162380Y-104878095D02*
X84162380Y-104878095D01*
X84162380Y-104497142D01*
X84210000Y-104401904D01*
X84257619Y-104354285D01*
X84352857Y-104306666D01*
X84495714Y-104306666D01*
X84590952Y-104354285D01*
X84638571Y-104401904D01*
X84686190Y-104497142D01*
X84686190Y-104878095D01*
X84495714Y-103449523D02*
X85162380Y-103449523D01*
X84114761Y-103687619D02*
X84829047Y-103925714D01*
X84829047Y-103306666D01*
%TO.C,D2*%
X84992380Y-122288095D02*
X83992380Y-122288095D01*
X83992380Y-122050000D01*
X84040000Y-121907142D01*
X84135238Y-121811904D01*
X84230476Y-121764285D01*
X84420952Y-121716666D01*
X84563809Y-121716666D01*
X84754285Y-121764285D01*
X84849523Y-121811904D01*
X84944761Y-121907142D01*
X84992380Y-122050000D01*
X84992380Y-122288095D01*
X84087619Y-121335714D02*
X84040000Y-121288095D01*
X83992380Y-121192857D01*
X83992380Y-120954761D01*
X84040000Y-120859523D01*
X84087619Y-120811904D01*
X84182857Y-120764285D01*
X84278095Y-120764285D01*
X84420952Y-120811904D01*
X84992380Y-121383333D01*
X84992380Y-120764285D01*
%TO.C,R1*%
X161362380Y-68746666D02*
X160886190Y-69080000D01*
X161362380Y-69318095D02*
X160362380Y-69318095D01*
X160362380Y-68937142D01*
X160410000Y-68841904D01*
X160457619Y-68794285D01*
X160552857Y-68746666D01*
X160695714Y-68746666D01*
X160790952Y-68794285D01*
X160838571Y-68841904D01*
X160886190Y-68937142D01*
X160886190Y-69318095D01*
X161362380Y-67794285D02*
X161362380Y-68365714D01*
X161362380Y-68080000D02*
X160362380Y-68080000D01*
X160505238Y-68175238D01*
X160600476Y-68270476D01*
X160648095Y-68365714D01*
%TO.C,R3*%
X85162380Y-89066666D02*
X84686190Y-89400000D01*
X85162380Y-89638095D02*
X84162380Y-89638095D01*
X84162380Y-89257142D01*
X84210000Y-89161904D01*
X84257619Y-89114285D01*
X84352857Y-89066666D01*
X84495714Y-89066666D01*
X84590952Y-89114285D01*
X84638571Y-89161904D01*
X84686190Y-89257142D01*
X84686190Y-89638095D01*
X84162380Y-88733333D02*
X84162380Y-88114285D01*
X84543333Y-88447619D01*
X84543333Y-88304761D01*
X84590952Y-88209523D01*
X84638571Y-88161904D01*
X84733809Y-88114285D01*
X84971904Y-88114285D01*
X85067142Y-88161904D01*
X85114761Y-88209523D01*
X85162380Y-88304761D01*
X85162380Y-88590476D01*
X85114761Y-88685714D01*
X85067142Y-88733333D01*
%TO.C,C2*%
X105729577Y-121332142D02*
X105681958Y-121379761D01*
X105539101Y-121427380D01*
X105443863Y-121427380D01*
X105301005Y-121379761D01*
X105205767Y-121284523D01*
X105158148Y-121189285D01*
X105110529Y-120998809D01*
X105110529Y-120855952D01*
X105158148Y-120665476D01*
X105205767Y-120570238D01*
X105301005Y-120475000D01*
X105443863Y-120427380D01*
X105539101Y-120427380D01*
X105681958Y-120475000D01*
X105729577Y-120522619D01*
X106110529Y-120522619D02*
X106158148Y-120475000D01*
X106253386Y-120427380D01*
X106491482Y-120427380D01*
X106586720Y-120475000D01*
X106634339Y-120522619D01*
X106681958Y-120617857D01*
X106681958Y-120713095D01*
X106634339Y-120855952D01*
X106062910Y-121427380D01*
X106681958Y-121427380D01*
%TO.C,D1*%
X85187380Y-70743095D02*
X84187380Y-70743095D01*
X84187380Y-70505000D01*
X84235000Y-70362142D01*
X84330238Y-70266904D01*
X84425476Y-70219285D01*
X84615952Y-70171666D01*
X84758809Y-70171666D01*
X84949285Y-70219285D01*
X85044523Y-70266904D01*
X85139761Y-70362142D01*
X85187380Y-70505000D01*
X85187380Y-70743095D01*
X85187380Y-69219285D02*
X85187380Y-69790714D01*
X85187380Y-69505000D02*
X84187380Y-69505000D01*
X84330238Y-69600238D01*
X84425476Y-69695476D01*
X84473095Y-69790714D01*
%TO.C,C1*%
X161393333Y-126027142D02*
X161345714Y-126074761D01*
X161202857Y-126122380D01*
X161107619Y-126122380D01*
X160964761Y-126074761D01*
X160869523Y-125979523D01*
X160821904Y-125884285D01*
X160774285Y-125693809D01*
X160774285Y-125550952D01*
X160821904Y-125360476D01*
X160869523Y-125265238D01*
X160964761Y-125170000D01*
X161107619Y-125122380D01*
X161202857Y-125122380D01*
X161345714Y-125170000D01*
X161393333Y-125217619D01*
X162345714Y-126122380D02*
X161774285Y-126122380D01*
X162060000Y-126122380D02*
X162060000Y-125122380D01*
X161964761Y-125265238D01*
X161869523Y-125360476D01*
X161774285Y-125408095D01*
D11*
%TO.C,U1*%
X125050000Y-100850000D02*
X125050000Y-102800000D01*
X119930000Y-100850000D02*
X119930000Y-104300000D01*
X125050000Y-100850000D02*
X125050000Y-98900000D01*
X119930000Y-100850000D02*
X119930000Y-98900000D01*
%TO.C,J1*%
X127080000Y-72390000D02*
X127080000Y-64770000D01*
X116920000Y-72390000D02*
X127080000Y-72390000D01*
X127080000Y-64770000D02*
X116920000Y-64770000D01*
X127080000Y-71120000D02*
X116920000Y-71120000D01*
X116920000Y-64770000D02*
X116920000Y-72390000D01*
%TO.C,R2*%
X161825000Y-87587064D02*
X161825000Y-87132936D01*
X163295000Y-87587064D02*
X163295000Y-87132936D01*
%TO.C,R4*%
X85625000Y-104367064D02*
X85625000Y-103912936D01*
X87095000Y-104367064D02*
X87095000Y-103912936D01*
%TO.C,D2*%
X85225000Y-124010000D02*
X87495000Y-124010000D01*
X85225000Y-119950000D02*
X85225000Y-124010000D01*
X87495000Y-124010000D02*
X87495000Y-119950000D01*
%TO.C,R1*%
X163295000Y-68807064D02*
X163295000Y-68352936D01*
X161825000Y-68807064D02*
X161825000Y-68352936D01*
%TO.C,R3*%
X85625000Y-89127064D02*
X85625000Y-88672936D01*
X87095000Y-89127064D02*
X87095000Y-88672936D01*
%TO.C,C2*%
X105634992Y-123390000D02*
X106157496Y-123390000D01*
X105634992Y-121920000D02*
X106157496Y-121920000D01*
%TO.C,D1*%
X85420000Y-72465000D02*
X87690000Y-72465000D01*
X87690000Y-72465000D02*
X87690000Y-68405000D01*
X85420000Y-68405000D02*
X85420000Y-72465000D01*
%TO.C,C1*%
X164180000Y-121920000D02*
G75*
G03*
X164180000Y-121920000I-2620000J0D01*
G01*
%TD*%
M02*
