%TF.GenerationSoftware,KiCad,Pcbnew,(6.0.10-0)*%
%TF.CreationDate,2023-02-14T13:21:13-08:00*%
%TF.ProjectId,lab4,6c616234-2e6b-4696-9361-645f70636258,rev?*%
%TF.SameCoordinates,Original*%
%TF.FileFunction,Other,User*%
%FSLAX46Y46*%
G04 Gerber Fmt 4.6, Leading zero omitted, Abs format (unit mm)*
G04 Created by KiCad (PCBNEW (6.0.10-0)) date 2023-02-14 13:21:13*
%MOMM*%
%LPD*%
G01*
G04 APERTURE LIST*
%ADD10C,0.050000*%
G04 APERTURE END LIST*
D10*
%TO.C,SW1*%
X139987500Y-65872500D02*
X139987500Y-57622500D01*
X151987500Y-74372500D02*
X137487500Y-74372500D01*
X137487500Y-74372500D02*
X137487500Y-65872500D01*
X137487500Y-65872500D02*
X139987500Y-65872500D01*
X149487500Y-57622500D02*
X149487500Y-65872500D01*
X151987500Y-65872500D02*
X151987500Y-74372500D01*
X139987500Y-57622500D02*
X149487500Y-57622500D01*
X149487500Y-65872500D02*
X151987500Y-65872500D01*
%TO.C,C1*%
X160890000Y-96520000D02*
G75*
G03*
X160890000Y-96520000I-2750000J0D01*
G01*
%TO.C,R1*%
X156030000Y-73870000D02*
X179250000Y-73870000D01*
X179250000Y-68370000D02*
X156030000Y-68370000D01*
X156030000Y-68370000D02*
X156030000Y-73870000D01*
X179250000Y-73870000D02*
X179250000Y-68370000D01*
%TO.C,V1*%
X109310000Y-98340000D02*
X116210000Y-98340000D01*
X109310000Y-92840000D02*
X109310000Y-98340000D01*
X116210000Y-92840000D02*
X109310000Y-92840000D01*
X116210000Y-98340000D02*
X116210000Y-92840000D01*
%TO.C,D1*%
X172950000Y-93230000D02*
X172950000Y-99730000D01*
X179400000Y-93230000D02*
X172950000Y-93230000D01*
X172950000Y-99730000D02*
X179400000Y-99730000D01*
X179400000Y-99730000D02*
X179400000Y-93230000D01*
%TO.C,R2*%
X132930000Y-68410000D02*
X109710000Y-68410000D01*
X109710000Y-68410000D02*
X109710000Y-73910000D01*
X109710000Y-73910000D02*
X132930000Y-73910000D01*
X132930000Y-73910000D02*
X132930000Y-68410000D01*
%TD*%
M02*
