%TF.GenerationSoftware,KiCad,Pcbnew,(6.0.10-0)*%
%TF.CreationDate,2023-02-14T13:21:13-08:00*%
%TF.ProjectId,lab4,6c616234-2e6b-4696-9361-645f70636258,rev?*%
%TF.SameCoordinates,Original*%
%TF.FileFunction,AssemblyDrawing,Top*%
%FSLAX46Y46*%
G04 Gerber Fmt 4.6, Leading zero omitted, Abs format (unit mm)*
G04 Created by KiCad (PCBNEW (6.0.10-0)) date 2023-02-14 13:21:13*
%MOMM*%
%LPD*%
G01*
G04 APERTURE LIST*
%ADD10C,0.150000*%
%ADD11C,0.100000*%
%ADD12C,0.200000*%
G04 APERTURE END LIST*
D10*
%TO.C,SW1*%
X144523214Y-57327261D02*
X144618452Y-57374880D01*
X144808928Y-57374880D01*
X144904166Y-57327261D01*
X144951785Y-57232023D01*
X144951785Y-57184404D01*
X144904166Y-57089166D01*
X144808928Y-57041547D01*
X144666071Y-57041547D01*
X144570833Y-56993928D01*
X144523214Y-56898690D01*
X144523214Y-56851071D01*
X144570833Y-56755833D01*
X144666071Y-56708214D01*
X144808928Y-56708214D01*
X144904166Y-56755833D01*
D11*
X143404166Y-70527261D02*
X143547023Y-70574880D01*
X143785119Y-70574880D01*
X143880357Y-70527261D01*
X143927976Y-70479642D01*
X143975595Y-70384404D01*
X143975595Y-70289166D01*
X143927976Y-70193928D01*
X143880357Y-70146309D01*
X143785119Y-70098690D01*
X143594642Y-70051071D01*
X143499404Y-70003452D01*
X143451785Y-69955833D01*
X143404166Y-69860595D01*
X143404166Y-69765357D01*
X143451785Y-69670119D01*
X143499404Y-69622500D01*
X143594642Y-69574880D01*
X143832738Y-69574880D01*
X143975595Y-69622500D01*
X144308928Y-69574880D02*
X144547023Y-70574880D01*
X144737500Y-69860595D01*
X144927976Y-70574880D01*
X145166071Y-69574880D01*
X146070833Y-70574880D02*
X145499404Y-70574880D01*
X145785119Y-70574880D02*
X145785119Y-69574880D01*
X145689880Y-69717738D01*
X145594642Y-69812976D01*
X145499404Y-69860595D01*
D10*
%TO.C,C1*%
X156282857Y-100055714D02*
X156282857Y-100722380D01*
X156044761Y-99674761D02*
X155806666Y-100389047D01*
X156425714Y-100389047D01*
X156806666Y-100627142D02*
X156854285Y-100674761D01*
X156806666Y-100722380D01*
X156759047Y-100674761D01*
X156806666Y-100627142D01*
X156806666Y-100722380D01*
X157187619Y-99722380D02*
X157854285Y-99722380D01*
X157425714Y-100722380D01*
X158997142Y-100055714D02*
X158997142Y-101055714D01*
X159473333Y-100579523D02*
X159520952Y-100674761D01*
X159616190Y-100722380D01*
X158997142Y-100579523D02*
X159044761Y-100674761D01*
X159140000Y-100722380D01*
X159330476Y-100722380D01*
X159425714Y-100674761D01*
X159473333Y-100579523D01*
X159473333Y-100055714D01*
X160378095Y-100198571D02*
X160044761Y-100198571D01*
X160044761Y-100722380D02*
X160044761Y-99722380D01*
X160520952Y-99722380D01*
X157973333Y-96877142D02*
X157925714Y-96924761D01*
X157782857Y-96972380D01*
X157687619Y-96972380D01*
X157544761Y-96924761D01*
X157449523Y-96829523D01*
X157401904Y-96734285D01*
X157354285Y-96543809D01*
X157354285Y-96400952D01*
X157401904Y-96210476D01*
X157449523Y-96115238D01*
X157544761Y-96020000D01*
X157687619Y-95972380D01*
X157782857Y-95972380D01*
X157925714Y-96020000D01*
X157973333Y-96067619D01*
X158925714Y-96972380D02*
X158354285Y-96972380D01*
X158640000Y-96972380D02*
X158640000Y-95972380D01*
X158544761Y-96115238D01*
X158449523Y-96210476D01*
X158354285Y-96258095D01*
%TO.C,R1*%
X165520952Y-74287619D02*
X165568571Y-74240000D01*
X165663809Y-74192380D01*
X165901904Y-74192380D01*
X165997142Y-74240000D01*
X166044761Y-74287619D01*
X166092380Y-74382857D01*
X166092380Y-74478095D01*
X166044761Y-74620952D01*
X165473333Y-75192380D01*
X166092380Y-75192380D01*
X166711428Y-74192380D02*
X166806666Y-74192380D01*
X166901904Y-74240000D01*
X166949523Y-74287619D01*
X166997142Y-74382857D01*
X167044761Y-74573333D01*
X167044761Y-74811428D01*
X166997142Y-75001904D01*
X166949523Y-75097142D01*
X166901904Y-75144761D01*
X166806666Y-75192380D01*
X166711428Y-75192380D01*
X166616190Y-75144761D01*
X166568571Y-75097142D01*
X166520952Y-75001904D01*
X166473333Y-74811428D01*
X166473333Y-74573333D01*
X166520952Y-74382857D01*
X166568571Y-74287619D01*
X166616190Y-74240000D01*
X166711428Y-74192380D01*
X168235238Y-75192380D02*
X168235238Y-74192380D01*
X168330476Y-74811428D02*
X168616190Y-75192380D01*
X168616190Y-74525714D02*
X168235238Y-74906666D01*
X168997142Y-75192380D02*
X169235238Y-75192380D01*
X169235238Y-75001904D01*
X169140000Y-74954285D01*
X169044761Y-74859047D01*
X168997142Y-74716190D01*
X168997142Y-74478095D01*
X169044761Y-74335238D01*
X169140000Y-74240000D01*
X169282857Y-74192380D01*
X169473333Y-74192380D01*
X169616190Y-74240000D01*
X169711428Y-74335238D01*
X169759047Y-74478095D01*
X169759047Y-74716190D01*
X169711428Y-74859047D01*
X169616190Y-74954285D01*
X169520952Y-75001904D01*
X169520952Y-75192380D01*
X169759047Y-75192380D01*
X167473333Y-71572380D02*
X167140000Y-71096190D01*
X166901904Y-71572380D02*
X166901904Y-70572380D01*
X167282857Y-70572380D01*
X167378095Y-70620000D01*
X167425714Y-70667619D01*
X167473333Y-70762857D01*
X167473333Y-70905714D01*
X167425714Y-71000952D01*
X167378095Y-71048571D01*
X167282857Y-71096190D01*
X166901904Y-71096190D01*
X168425714Y-71572380D02*
X167854285Y-71572380D01*
X168140000Y-71572380D02*
X168140000Y-70572380D01*
X168044761Y-70715238D01*
X167949523Y-70810476D01*
X167854285Y-70858095D01*
%TO.C,V1*%
X112140952Y-99492380D02*
X112331428Y-99492380D01*
X112426666Y-99444761D01*
X112474285Y-99397142D01*
X112569523Y-99254285D01*
X112617142Y-99063809D01*
X112617142Y-98682857D01*
X112569523Y-98587619D01*
X112521904Y-98540000D01*
X112426666Y-98492380D01*
X112236190Y-98492380D01*
X112140952Y-98540000D01*
X112093333Y-98587619D01*
X112045714Y-98682857D01*
X112045714Y-98920952D01*
X112093333Y-99016190D01*
X112140952Y-99063809D01*
X112236190Y-99111428D01*
X112426666Y-99111428D01*
X112521904Y-99063809D01*
X112569523Y-99016190D01*
X112617142Y-98920952D01*
X112902857Y-98492380D02*
X113236190Y-99492380D01*
X113569523Y-98492380D01*
X111950476Y-95992380D02*
X112283809Y-96992380D01*
X112617142Y-95992380D01*
X113474285Y-96992380D02*
X112902857Y-96992380D01*
X113188571Y-96992380D02*
X113188571Y-95992380D01*
X113093333Y-96135238D01*
X112998095Y-96230476D01*
X112902857Y-96278095D01*
%TO.C,D1*%
X175527142Y-100892380D02*
X175050952Y-100892380D01*
X175050952Y-99892380D01*
X175860476Y-100368571D02*
X176193809Y-100368571D01*
X176336666Y-100892380D02*
X175860476Y-100892380D01*
X175860476Y-99892380D01*
X176336666Y-99892380D01*
X176765238Y-100892380D02*
X176765238Y-99892380D01*
X177003333Y-99892380D01*
X177146190Y-99940000D01*
X177241428Y-100035238D01*
X177289047Y-100130476D01*
X177336666Y-100320952D01*
X177336666Y-100463809D01*
X177289047Y-100654285D01*
X177241428Y-100749523D01*
X177146190Y-100844761D01*
X177003333Y-100892380D01*
X176765238Y-100892380D01*
D12*
X175559523Y-96841904D02*
X175559523Y-96041904D01*
X175750000Y-96041904D01*
X175864285Y-96080000D01*
X175940476Y-96156190D01*
X175978571Y-96232380D01*
X176016666Y-96384761D01*
X176016666Y-96499047D01*
X175978571Y-96651428D01*
X175940476Y-96727619D01*
X175864285Y-96803809D01*
X175750000Y-96841904D01*
X175559523Y-96841904D01*
X176778571Y-96841904D02*
X176321428Y-96841904D01*
X176550000Y-96841904D02*
X176550000Y-96041904D01*
X176473809Y-96156190D01*
X176397619Y-96232380D01*
X176321428Y-96270476D01*
D10*
%TO.C,R2*%
X118962857Y-67087619D02*
X119010476Y-67040000D01*
X119105714Y-66992380D01*
X119343809Y-66992380D01*
X119439047Y-67040000D01*
X119486666Y-67087619D01*
X119534285Y-67182857D01*
X119534285Y-67278095D01*
X119486666Y-67420952D01*
X118915238Y-67992380D01*
X119534285Y-67992380D01*
X119962857Y-67897142D02*
X120010476Y-67944761D01*
X119962857Y-67992380D01*
X119915238Y-67944761D01*
X119962857Y-67897142D01*
X119962857Y-67992380D01*
X120391428Y-67087619D02*
X120439047Y-67040000D01*
X120534285Y-66992380D01*
X120772380Y-66992380D01*
X120867619Y-67040000D01*
X120915238Y-67087619D01*
X120962857Y-67182857D01*
X120962857Y-67278095D01*
X120915238Y-67420952D01*
X120343809Y-67992380D01*
X120962857Y-67992380D01*
X122153333Y-67992380D02*
X122153333Y-66992380D01*
X122248571Y-67611428D02*
X122534285Y-67992380D01*
X122534285Y-67325714D02*
X122153333Y-67706666D01*
X122915238Y-67992380D02*
X123153333Y-67992380D01*
X123153333Y-67801904D01*
X123058095Y-67754285D01*
X122962857Y-67659047D01*
X122915238Y-67516190D01*
X122915238Y-67278095D01*
X122962857Y-67135238D01*
X123058095Y-67040000D01*
X123200952Y-66992380D01*
X123391428Y-66992380D01*
X123534285Y-67040000D01*
X123629523Y-67135238D01*
X123677142Y-67278095D01*
X123677142Y-67516190D01*
X123629523Y-67659047D01*
X123534285Y-67754285D01*
X123439047Y-67801904D01*
X123439047Y-67992380D01*
X123677142Y-67992380D01*
X121153333Y-71612380D02*
X120820000Y-71136190D01*
X120581904Y-71612380D02*
X120581904Y-70612380D01*
X120962857Y-70612380D01*
X121058095Y-70660000D01*
X121105714Y-70707619D01*
X121153333Y-70802857D01*
X121153333Y-70945714D01*
X121105714Y-71040952D01*
X121058095Y-71088571D01*
X120962857Y-71136190D01*
X120581904Y-71136190D01*
X121534285Y-70707619D02*
X121581904Y-70660000D01*
X121677142Y-70612380D01*
X121915238Y-70612380D01*
X122010476Y-70660000D01*
X122058095Y-70707619D01*
X122105714Y-70802857D01*
X122105714Y-70898095D01*
X122058095Y-71040952D01*
X121486666Y-71612380D01*
X122105714Y-71612380D01*
D11*
%TO.C,SW1*%
X137837500Y-73372500D02*
X137837500Y-66872500D01*
X150637500Y-73372500D02*
X137837500Y-73372500D01*
X144237500Y-66872500D02*
X144237500Y-57872500D01*
X150637500Y-73372500D02*
X151637500Y-72372500D01*
X137837500Y-66872500D02*
X151637500Y-66872500D01*
X151637500Y-66872500D02*
X151637500Y-72372500D01*
X144237500Y-57872500D02*
X149237500Y-57872500D01*
X149237500Y-57872500D02*
X149237500Y-66872500D01*
%TO.C,C1*%
X160640000Y-96520000D02*
G75*
G03*
X160640000Y-96520000I-2500000J0D01*
G01*
%TO.C,R1*%
X157480000Y-71120000D02*
X159890000Y-71120000D01*
X159890000Y-73620000D02*
X175390000Y-73620000D01*
X175390000Y-68620000D02*
X159890000Y-68620000D01*
X175390000Y-73620000D02*
X175390000Y-68620000D01*
X159890000Y-68620000D02*
X159890000Y-73620000D01*
X177800000Y-71120000D02*
X175390000Y-71120000D01*
%TO.C,V1*%
X109810000Y-93340000D02*
X109810000Y-97840000D01*
X109400000Y-92930000D02*
X109400000Y-94180000D01*
X115710000Y-93340000D02*
X109810000Y-93340000D01*
X115710000Y-97840000D02*
X115710000Y-93340000D01*
X109810000Y-97840000D02*
X115710000Y-97840000D01*
X110650000Y-92930000D02*
X109400000Y-92930000D01*
%TO.C,D1*%
X173670000Y-95010306D02*
X173670000Y-97949694D01*
X173669984Y-97949666D02*
G75*
G03*
X173670000Y-95010306I2500016J1469666D01*
G01*
X178670000Y-96480000D02*
G75*
G03*
X178670000Y-96480000I-2500000J0D01*
G01*
%TO.C,R2*%
X113570000Y-68660000D02*
X113570000Y-73660000D01*
X111160000Y-71160000D02*
X113570000Y-71160000D01*
X131480000Y-71160000D02*
X129070000Y-71160000D01*
X129070000Y-68660000D02*
X113570000Y-68660000D01*
X113570000Y-73660000D02*
X129070000Y-73660000D01*
X129070000Y-73660000D02*
X129070000Y-68660000D01*
%TD*%
M02*
